<svg width="48" height="100" viewBox="0 0 48 100" fill="none" xmlns="http://www.w3.org/2000/svg">
<path fill-rule="evenodd" clip-rule="evenodd" d="M8.47021 0.00217902H13.5319C15.4417 6.4251 17.3667 12.8349 19.2853 19.2513C19.2853 19.2622 19.2896 19.2622 19.2961 19.2622C20.6556 18.8632 22.2762 18.5776 24.0228 18.5231C26.3024 18.4512 28.5342 18.7084 30.3853 19.1358C30.431 19.1467 30.4636 19.1554 30.5245 19.1597C34.6247 12.7804 38.7184 6.39675 42.8013 0.00217902H48C46.4991 0.643163 45.5747 1.96219 44.6567 3.22672C41.8986 7.02248 39.2209 10.8989 36.4845 14.723C35.3447 16.3167 34.2245 17.9214 33.0956 19.5304C33.0194 19.6372 32.9281 19.7331 32.8759 19.8531C35.3273 20.7077 37.4416 21.933 39.297 23.4242C39.3906 23.4984 39.632 23.6597 39.6429 23.736C39.6494 23.7818 39.5668 24.002 39.5515 24.0718C39.1339 25.7549 38.7271 27.4315 38.3073 29.0863C38.2747 29.1233 38.2769 29.0579 38.2725 29.0514C38.1812 28.9097 38.0876 28.7222 37.9963 28.5652C37.6809 28.0267 37.3089 27.51 36.9348 27.0063C35.46 25.0158 33.5328 23.3632 31.2401 22.1772C31.1423 22.2687 31.0748 22.393 30.9987 22.4998C29.2411 24.9984 27.4575 27.5165 25.6956 30.0325C25.0735 30.922 24.534 31.853 24.0816 32.8864C23.627 33.9285 23.2506 35.0448 22.9396 36.2134C22.783 36.8064 22.6503 37.4125 22.5133 38.0273C22.3806 38.6291 22.2283 39.2308 22.0978 39.8413C21.5692 42.3027 21.0319 44.7751 20.4947 47.2126C21.0863 47.9451 21.7063 48.6799 22.3044 49.419C22.3871 49.5214 22.4589 49.6283 22.5589 49.7068C23.3029 46.2468 24.0685 42.7497 24.8059 39.2374C24.9234 38.6749 25.0474 38.0121 25.0017 37.3428C24.9582 36.7039 24.8168 36.2352 24.5057 35.8515C24.5014 35.8449 24.4361 35.7904 24.4818 35.7926H31.7796C30.6267 40.6458 29.426 45.4728 28.2645 50.363C27.9099 51.8543 27.5271 53.3957 27.1703 54.9262C27.1442 55.0352 27.0855 55.1573 27.0899 55.214C27.0942 55.2707 27.1877 55.3579 27.2639 55.4451C28.1709 56.5112 29.0845 57.6122 29.9394 58.7263C30.8595 59.9254 31.7774 61.1703 32.4996 62.5286C33.237 63.9174 33.8308 65.4675 33.9743 67.4167C34.131 69.5249 33.7547 71.413 33.2826 73.0198C32.3277 76.2683 30.6681 78.8977 28.4863 80.9449C26.2568 83.0401 23.4595 84.466 19.8747 85.1745C19.0025 88.761 18.1215 92.3692 17.258 96.0015C17.2014 96.237 17.1275 96.4964 17.0731 96.7755C17.0209 97.0436 16.9774 97.3968 17.0622 97.6192C17.1492 97.8525 17.4016 97.9375 17.7539 97.955C18.0737 97.9702 18.4522 97.955 18.7806 97.955C22.2109 97.955 25.4976 97.8656 28.6255 97.5843C29.8785 97.471 31.1074 97.3336 32.3038 97.181C37.148 96.5596 41.8246 95.7595 46.2403 94.7784C46.2729 94.8024 46.2229 94.8372 46.2163 94.8481C45.4855 96.1214 44.7111 97.4099 43.9563 98.6832C43.6975 99.1214 43.4364 99.5683 43.1841 100H10.8151C11.6177 99.2718 12.0484 98.1272 12.3246 96.9041C13.1708 93.1694 13.9713 89.3169 14.8022 85.58C13.1142 85.5255 11.596 85.2181 10.2017 84.817C7.77632 84.1193 5.65985 83.1033 3.73481 81.8933C2.37314 81.0387 1.0789 80.1055 0 78.9347V78.889C0.530747 76.8156 1.02234 74.7051 1.55526 72.6383C2.69724 75.4704 4.52223 77.7443 6.7431 79.5605C7.84375 80.4587 9.06403 81.2218 10.4431 81.9064C11.1174 82.2421 11.8461 82.519 12.6226 82.7501C13.4449 82.9943 14.328 83.1971 15.2981 83.2232C15.309 83.2232 15.3112 83.2145 15.3221 83.2123C16.2617 78.7581 17.2623 74.3083 18.2151 69.8563C19.133 65.5635 20.1097 61.2139 21.0058 56.9037C21.0363 56.7576 21.1103 56.5657 21.0972 56.4872C21.0842 56.4 20.921 56.2736 20.8427 56.1864C20.3837 55.674 19.9683 55.1965 19.5289 54.7082C19.3723 54.5359 19.2222 54.3528 19.0677 54.2002C19.0569 54.1871 19.0286 54.1239 18.9981 54.1653C18.5479 56.3194 18.0715 58.5345 17.6038 60.6929C17.3472 61.8789 17.1819 63.7125 17.8344 64.5628C17.8583 64.5933 17.9366 64.6412 17.891 64.6674H11.1479C11.6329 64.3665 11.9701 63.9218 12.2202 63.3963C12.4813 62.8513 12.6248 62.2321 12.751 61.5715C13.5058 57.6144 14.1801 53.5418 14.8957 49.5672C14.0191 48.5905 13.149 47.6247 12.2681 46.6566C11.3915 45.6908 10.4649 44.7729 9.66221 43.7112C8.87044 42.6603 8.19613 41.4873 7.67843 40.14C7.15856 38.7861 6.82576 37.2621 6.82576 35.4372C6.82576 33.6124 7.12594 32.0514 7.56315 30.619C7.99601 29.2018 8.62464 27.946 9.31635 26.8167C10.7346 24.5013 12.5944 22.6895 14.85 21.2484C14.1322 18.5427 13.4514 15.7455 12.7292 13.0224C12.4878 12.1089 12.2529 11.1889 12.0266 10.2732C11.5786 8.46796 11.0848 6.6017 10.6193 4.77249C10.1516 2.93457 9.75357 1.00944 8.47455 0L8.47021 0.00217902ZM23.6879 20.3828C22.2479 20.4504 20.9602 20.7687 19.8617 21.1677C20.8471 24.4991 21.8498 27.8087 22.8352 31.14C22.9222 31.0615 22.9679 30.9482 23.0309 30.8522C24.956 27.8741 26.8723 24.8501 28.7843 21.8741C28.8953 21.6997 29.0432 21.51 29.1411 21.3421C29.1454 21.3334 29.1802 21.2898 29.1519 21.2724C27.6293 20.7557 25.7934 20.2826 23.6879 20.3828ZM12.7706 27.813C12.4443 28.5499 12.1659 29.4002 11.9875 30.3203C11.8048 31.2556 11.6982 32.3064 11.7809 33.3704C11.8592 34.3711 12.0723 35.265 12.3573 36.0848C12.6335 36.8784 12.999 37.6502 13.3948 38.3369C14.0844 39.536 14.8957 40.6763 15.8158 41.677C15.9159 41.786 16.0703 41.9692 16.1726 42.0477C16.2139 42.0782 16.1791 42.0869 16.2074 42.0477C16.2269 42.0215 16.2465 41.8711 16.2639 41.7708C16.2813 41.6683 16.2987 41.5506 16.3096 41.483C16.6859 39.3311 17.06 37.2577 17.4037 35.1516C17.5321 34.3646 17.6299 33.5557 17.5886 32.6553C17.5516 31.8486 17.3689 31.1008 17.1862 30.3682C16.6424 28.2011 16.0638 26.0732 15.5265 23.9213C15.5265 23.9148 15.5265 23.9083 15.5157 23.9104C14.378 25.0093 13.4623 26.2542 12.7727 27.8152L12.7706 27.813ZM23.5269 81.7385C24.906 80.9798 26.1023 79.9594 27.0311 78.769C27.973 77.5634 28.7452 76.1484 29.1759 74.437C29.4717 73.2618 29.6022 71.8992 29.5217 70.5431C29.4456 69.235 29.1541 68.0097 28.7843 66.961C28.0317 64.8309 26.8876 63.078 25.5803 61.5301C23.851 68.655 22.1304 75.7887 20.4164 82.9289C21.554 82.676 22.5981 82.2509 23.5291 81.7385H23.5269Z" fill="white"/>
</svg>
